<?xml version="1.0" encoding="utf-8"?>
<COLLADA xmlns="http://www.collada.org/2005/11/COLLADASchema" version="1.4.1" xmlns:xsi="http://www.w3.org/2001/XMLSchema-instance">
  <asset>
    <contributor>
      <author>Blender User</author>
      <authoring_tool>Blender 4.2.0 commit date:2024-07-16, commit time:06:20, hash:a51f293548ad</authoring_tool>
    </contributor>
    <created>2025-03-20T13:18:13</created>
    <modified>2025-03-20T13:18:13</modified>
    <unit name="meter" meter="1"/>
    <up_axis>Z_UP</up_axis>
  </asset>
  <library_effects>
    <effect id="Surface_1_006-effect">
      <profile_COMMON>
        <technique sid="common">
          <lambert>
            <emission>
              <color sid="emission">0 0 0 1</color>
            </emission>
            <diffuse>
              <color sid="diffuse">0.200784 0.200784 0 1</color>
            </diffuse>
            <index_of_refraction>
              <float sid="ior">1</float>
            </index_of_refraction>
          </lambert>
        </technique>
      </profile_COMMON>
    </effect>
  </library_effects>
  <library_images/>
  <library_materials>
    <material id="Surface_1_006-material" name="Surface_1.006">
      <instance_effect url="#Surface_1_006-effect"/>
    </material>
  </library_materials>
  <library_geometries>
    <geometry id="polygons_003-mesh" name="polygons.003">
      <mesh>
        <source id="polygons_003-mesh-positions">
          <float_array id="polygons_003-mesh-positions-array" count="600">0.894989 -2.8e-5 1.289946 0.889001 0.004880964 1.288521 0.89496 0.007274985 1.287991 0.88903 0.01181995 1.286202 0.895 0.01389497 1.284792 0.889001 0.01768296 1.281684 0.895 0.01768296 1.281684 0.889001 0.02078896 1.277894 0.895 0.02078896 1.277894 0.889001 0.02310699 1.273574 0.894989 0.02398496 1.271284 0.88903 0.02501595 1.266509 0.895 0.02500098 1.264008 0.889001 0.02451598 1.259126 0.89501 0.024001 1.256716 0.88905 0.02221298 1.252168 0.895 0.02078896 1.250106 0.889001 0.01768296 1.246316 0.895 0.01768296 1.246316 0.889001 0.01389497 1.243208 0.894971 0.01181995 1.241798 0.889001 0.007274985 1.240009 0.895 0.004880964 1.239479 0.889001 3e-6 1.238994 0.894989 -0.002511978 1.238963 0.88896 -0.007238984 1.239964 0.895 -0.009571969 1.240904 0.889001 -0.01388996 1.243208 0.89498 -0.01590496 1.244618 0.88901 -0.01940494 1.248014 0.895 -0.02078294 1.250106 0.889001 -0.02310097 1.254426 0.895 -0.02399498 1.256716 0.889021 -0.02500998 1.261491 0.895 -0.02499496 1.264008 0.889001 -0.02452498 1.268874 0.894989 -0.02399498 1.271269 0.88905 -0.02220696 1.275832 0.895 -0.02078294 1.277894 0.889001 -0.01767796 1.281684 0.895 -0.01767796 1.281684 0.889001 -0.01388996 1.284792 0.895 -0.01181399 1.286111 0.889021 -0.007344961 1.288066 0.895 -0.004875957 1.288521 0.889021 3.3e-5 1.289901 0.894559 -0.008041977 1.29407 0.895021 -0.01293599 1.291705 0.895 -0.005299985 1.294039 0.894989 -0.01202696 1.239236 0.895021 -0.02072298 1.241283 0.89496 -0.01235997 1.237463 0.894971 -0.02607095 1.255048 0.889021 -0.02723699 1.254336 0.88903 -0.02535897 1.254987 0.8945 -0.02375298 1.244072 0.895141 -0.027646 1.252137 0.89501 -0.03069198 1.262719 0.8945 -0.02913099 1.253396 0.8945 -0.02684295 1.248499 0.894541 -0.03103995 1.261248 0.8945 -0.017874 1.238463 0.8945 -0.01060199 1.23487 0.889001 -0.03000998 1.255958 0.895 -0.02734297 1.254002 0.88898 0.002668976 1.23296 0.889001 -0.005375981 1.233475 0.889001 -0.01311695 1.235856 0.889001 -0.01993495 1.240252 0.889039 -0.01149594 1.236523 0.889001 0.01059299 1.23487 0.889001 -0.02375298 1.244072 0.889001 -0.02684295 1.248499 0.88905 -0.02758598 1.252471 0.889021 -0.02584296 1.251561 0.889071 -0.02399498 1.252895 0.88905 -0.009177982 1.239085 0.889021 -0.01125395 1.239797 0.88901 -0.01238995 1.238478 0.88903 0.010517 1.236356 0.889021 -0.009359955 1.237083 0.889001 0.009228944 1.237417 0.889039 0.009122967 1.238963 0.889039 0.01227396 1.239054 0.889001 0.01783394 1.238524 0.88901 0.01207697 1.237068 0.88901 0.01068395 1.239827 0.89498 -0.01070797 1.239858 0.894971 -0.009132981 1.238933 0.89496 -0.02428299 1.252289 0.894989 -0.02452498 1.254336 0.894559 -0.02199494 1.286005 0.895021 -0.02284395 1.284807 0.894919 -0.01248097 1.290356 0.88905 -0.01237499 1.289128 0.88908 -0.01166296 1.291523 0.89498 -0.02640396 1.251622 0.889089 0.02513694 1.251561 0.89498 0.02448499 1.252213 0.894971 0.02633398 1.251485 0.88899 0.02819699 1.250864 0.88901 -0.009071946 1.289491 0.88903 0.009122967 1.290507 0.895141 0.02766698 1.252137 0.889039 -0.01045095 1.288082 0.889001 -0.01784396 1.289476 0.89506 0.004017949 1.294403 0.8945 0.01059299 1.29313 0.894591 0.002698957 1.29501 0.894471 0.03010594 1.255988 0.8945 0.02684897 1.248499 0.889001 0.02374297 1.244072 0.894489 0.02200096 1.241995 0.8945 0.01550096 1.237144 0.894489 0.008046984 1.233945 0.89455 -0.002663969 1.23299 0.89501 0.01754695 1.238963 0.88903 -0.027646 1.275332 0.88899 -0.02819198 1.277136 0.889089 -0.02513098 1.276424 0.895 0.01072895 1.239873 0.8945 -0.03052496 1.269374 0.894989 0.009395956 1.239221 0.89491 0.02510696 1.276348 0.894971 0.02413696 1.274104 0.89498 0.01236498 1.290598 0.889001 0.01219898 1.290583 0.889039 0.012335 1.289037 0.89491 0.01142597 1.288066 0.89503 0.01865297 1.288294 0.8945 0.02374297 1.283928 0.89453 0.01784998 1.289552 0.8891 -0.02664595 1.273104 0.895 0.02336394 1.244391 0.89491 0.009911 1.291553 0.889021 0.01092594 1.291674 0.895159 0.006001949 1.2339 0.8945 -0.02684295 1.279501 0.8945 -0.02913099 1.274604 0.89534 -0.02773696 1.274877 0.88901 0.009410977 1.288764 0.88901 0.01074397 1.288157 0.88905 0.002032995 1.291296 0.89498 0.001608967 1.290674 0.89498 0.001956999 1.292766 0.8945 0.03099995 1.264008 0.895021 0.02992397 1.270633 0.895 0.03004598 1.258702 0.894919 -0.02397996 1.275196 0.88903 -0.02414697 1.274074 0.889021 0.001592993 1.293327 0.89496 0.01245599 1.238766 0.89493 -0.02634298 1.276454 0.889001 0.01992499 1.287748 0.89498 0.02724295 1.254351 0.894989 0.02589398 1.254987 0.89515 0.02692496 1.277015 0.894989 0.02757596 1.274301 0.894951 0.02606099 1.272937 0.894471 0.02822798 1.277197 0.894971 0.02431899 1.254245 0.8945 0.03052997 1.269374 0.889001 -0.03099495 1.264008 0.889001 -0.03052496 1.269374 0.889001 -0.02375298 1.283928 0.8945 -0.01549595 1.290856 0.889001 -0.01060199 1.29313 0.88899 -0.00267899 1.29504 0.889001 0.005380988 1.294525 0.88901 0.01310795 1.292175 0.88899 0.02543997 1.281821 0.889001 0.02913695 1.274604 0.889001 0.03052997 1.269374 0.88898 0.03098499 1.261264 0.894971 -0.01052695 1.236356 0.89493 0.01145595 1.236523 0.894989 0.009122967 1.237447 0.895 -0.009223997 1.237417 0.88906 -0.002042949 1.292751 0.889021 -0.001587986 1.290674 0.88901 -0.00940597 1.290962 0.88901 -2.8e-5 1.29407 0.889021 0.02584898 1.255003 0.889021 0.02718198 1.254381 0.889039 0.02413696 1.253926 0.89494 -0.001966953 1.291205 0.89498 -0.01119297 1.288173 0.88903 0.02760595 1.252653 0.89493 -0.008829951 1.289355 0.88905 0.026712 1.276196 0.88901 0.02451598 1.275757 0.889021 0.02754598 1.274377 0.89496 0.009092986 1.289052 0.889039 0.02428799 1.27371 0.889039 0.02645498 1.272997 0.89498 -0.001587986 1.293327 0.89498 3.3e-5 1.294115 0.894971 -0.01019299 1.291538 0.894951 -0.02558594 1.272876 0.894989 -0.02720695 1.27368</float_array>
          <technique_common>
            <accessor source="#polygons_003-mesh-positions-array" count="200" stride="3">
              <param name="X" type="float"/>
              <param name="Y" type="float"/>
              <param name="Z" type="float"/>
            </accessor>
          </technique_common>
        </source>
        <source id="polygons_003-mesh-normals">
          <float_array id="polygons_003-mesh-normals-array" count="2274">0.01124674 -0.08641892 -0.9961955 0.02185988 -0.2832413 -0.9587996 -1.93545e-4 -0.337817 -0.9412119 0.002218008 -0.4584367 -0.8887243 -0.01219445 -0.5629114 -0.8264274 0.008402228 -0.6761073 -0.7367553 0 -0.7302128 -0.68322 0 -0.8127815 -0.5825687 -0.01149362 -0.8560941 -0.5166922 0.002576112 -0.9201615 -0.3915305 -0.01770663 -0.9597108 -0.2804315 0.002481162 -0.9937618 -0.1114956 -0.02184003 -0.9995219 0.02188855 0.01342195 -0.9847391 0.173519 -0.01661026 -0.9543644 0.2981825 0.001297891 -0.888423 0.4590239 -0.01371502 -0.8256135 0.5640695 0.007634699 -0.7365419 0.6763488 -0.008403003 -0.6761114 0.7367516 0.0121383 -0.5630353 0.8263437 -0.002178311 -0.4585261 0.8886783 0.01714718 -0.2991821 0.954042 -0.01155191 -0.1760053 0.9843214 0.02308344 -0.02533227 0.9994126 -0.003797948 0.1103131 0.9938897 0.01427191 0.2811312 0.9595633 -0.01710832 0.4055768 0.9139009 0.0136274 0.537051 0.8434398 -0.01654225 0.6419175 0.7665954 0.002900719 0.763993 0.6452181 -0.02275151 0.8432104 0.5371021 0.01225292 0.9157843 0.4014837 -0.01615548 0.9597877 0.2802617 0.003277182 0.9937769 0.1113414 -0.02272731 0.9994945 -0.02223521 0.01153242 0.9847263 -0.1737276 -0.0184198 0.9541761 -0.2986782 3.88328e-4 0.8882837 -0.459295 -0.013866 0.8258139 -0.5637723 0.007631301 0.7365232 -0.6763693 -0.01105624 0.6737313 -0.7388938 0.00296092 0.5640685 -0.8257227 -0.01840811 0.4631298 -0.8860993 -0.01593166 0.340255 -0.9401983 -0.02649223 0.2839169 -0.9584829 -0.003837287 0.08607053 -0.9962817 0.01015156 -0.08625245 -0.9962217 -0.003812909 0.08592575 -0.9962943 0.6538575 -0.1564953 0.7402564 0.9568017 -0.1372519 0.2563055 0.8404568 -0.06601667 0.5378423 0.9999807 0.002217292 -0.005814015 0.9905033 -0.08182829 -0.1104871 0.9782991 -0.09537297 -0.1839429 -0.008839428 0.2028985 -0.97916 0.008685588 0.4886367 -0.8724441 0.004348516 -0.04889684 -0.9987944 0.8985251 -0.3630824 -0.2466248 0.9601929 -0.2497801 -0.1250581 0.969922 -0.2431858 -0.01058846 0.8296058 -0.5299249 -0.1758804 0.856019 -0.4522227 -0.2504524 0.6745125 -0.7371562 -0.04042047 0.9249044 -0.1684107 -0.3408662 0.9747765 -0.08933776 -0.2045226 0.8944675 -0.09674996 -0.4365402 0.894468 -0.09674972 -0.4365394 0.8944678 -0.09675002 -0.4365397 -0.9956493 0.04421871 -0.08201909 -0.9956455 0.04425919 -0.08204436 -0.9956455 0.04425919 -0.08204436 -0.9999988 -0.00140202 -6.45701e-4 -0.9999369 -0.003315508 -0.01073765 -0.9998207 0.00353074 0.01860791 -0.9993942 8.2499e-4 -0.03479403 -0.9999496 0.002662956 0.009682357 -0.9997614 -0.004504859 0.0213806 -0.9977195 -0.00549817 -0.06727361 -0.9999934 -9.91784e-5 0.003651797 -0.99989 0.0110138 0.009931504 -0.9999868 -0.004893064 0.001635551 -0.9999619 7.62173e-4 0.008699178 -0.9998106 -0.007741212 -0.01786231 -0.9999591 0.002106189 -0.008805513 -0.9999246 0.01219809 0.001517891 -0.9998973 0.01313281 0.005748152 -0.9999163 1.69328e-4 0.01293927 -0.9998031 -0.0162757 -0.01135689 -0.9996465 -0.01963943 -0.01792162 -0.9998099 -0.007765054 -0.01789027 -0.9982447 -0.001062452 -0.059215 -0.9995003 -0.005002677 -0.03120964 -0.9964033 -0.005537986 -0.08455693 -0.9999853 -8.76578e-5 -0.005429387 -0.9999701 -0.005774855 -0.005152821 -0.9998894 -8.67588e-4 -0.01484811 -0.9999926 -7.84454e-4 0.003807663 -0.9995011 -0.00499773 -0.03118985 -0.9999079 0.001520037 -0.01348978 -0.9996432 -0.009384751 -0.02501058 -0.9999523 -0.004400014 -0.008728504 -0.9998573 -0.01010113 0.01355242 -0.9986994 -0.006203949 -0.05060577 0.9999318 5.31303e-5 -0.0116772 0.9999982 -0.001074492 0.001592636 0.999787 -0.001666307 -0.02057242 0.9999566 8.66149e-5 -0.009314775 0.9998793 0.01316618 0.008254289 0.9999272 0.004056572 0.01136898 0.01746267 0.3245146 -0.9457195 0.00515896 0.0547434 -0.9984872 0.003516018 0.6050259 -0.796198 -0.001562535 -0.9404725 -0.3398665 -0.06045484 -0.9913679 -0.1163403 -0.00155878 -0.9404727 -0.3398658 0.5937826 -0.4727849 0.6510735 0.9820696 -0.1456737 0.1196602 0.918325 -0.1851864 0.3498361 0.07690918 0.9554386 -0.2849949 -0.7257306 0.1815926 0.6635807 -0.7257307 0.1815924 0.6635806 -0.7256976 0.1815997 0.6636149 -0.2353477 0.2835181 0.9296392 -0.06233114 0.3653861 0.9287669 -0.2354958 0.2834599 0.9296195 -0.3998866 0.1912335 0.896393 -0.3998861 0.1912337 0.8963932 0.9999942 -0.001053929 -0.003234267 0.9999942 -0.001052737 -0.00323385 0.9999682 -0.001551628 0.00782901 -0.8685148 -0.1240178 0.4798977 -0.8686085 -0.1239476 0.4797459 -0.8685147 -0.1240178 0.4798976 0.9980956 0.00631994 0.0613625 0.9980986 0.00631231 0.06131517 0.9980956 0.006320178 0.06136256 0.692842 0.07037734 0.7176469 0.4381462 0.2933417 0.8496932 0.3072376 0.07962417 0.948296 -0.02401995 0.9137685 -0.4055247 0.282499 0.9279598 -0.2430737 0.2854629 0.8215072 -0.4935959 -0.02405494 0.9137381 -0.405591 0.1567925 0.8340639 -0.5289175 -0.02039176 0.7779063 -0.6280494 0.2066736 0.6857237 -0.6979033 -0.01297718 0.5816766 -0.8133168 0.1183781 0.5075554 -0.8534485 -0.02004021 0.3614065 -0.9321931 0.06748867 0.203969 -0.9766484 -0.006833195 0.08723652 -0.9961643 0.06716519 -0.02978193 -0.9972973 -0.02181589 -0.1971299 -0.9801346 0.731058 0.393382 -0.5574988 0.375414 0.451124 -0.8096614 0.3320648 0.6593987 -0.6744822 -0.9994838 0.02923923 -0.01331114 -0.9997765 0.01875162 -0.009768486 -0.99994 0.01021707 0.003955841 -0.9999732 5.01382e-4 -0.007310271 0.9995008 -0.004399597 -0.03129041 0.9995007 -0.004399657 -0.03129047 0.9994992 -0.004404485 -0.03133803 -0.3320676 -0.3331603 -0.8824599 -0.5462699 -0.1730089 -0.819547 -0.5462697 -0.1730088 -0.8195471 0.3165317 -0.1736555 -0.9325512 0.5620578 -0.005144774 -0.827082 0.3106585 0.2576957 -0.9149231 0.7955624 -0.6049844 -0.03277683 0.4179427 -0.8993025 0.1287596 0.2837894 -0.955454 -0.08106297 -0.9865283 0.003539621 -0.1635529 -0.9865283 0.003539621 -0.1635529 -0.9865283 0.00353986 -0.1635529 -0.998532 -0.05403929 -0.003693163 -0.998532 -0.05403929 -0.003693222 -0.998532 -0.05403929 -0.003693222 -0.01476031 -0.981809 -0.1892968 0.02592641 -0.8891603 -0.4568608 -0.03024172 -0.9904922 0.1342043 -0.1118605 0.08146446 0.9903792 -0.4192475 -0.02160847 0.9076148 -0.4192472 -0.02160871 0.9076149 0.8479067 0.3186471 0.4236962 0.4602148 0.6718932 0.580312 0.3124688 0.5455314 0.7776624 0.9980857 -0.06173557 0.003718614 0.9980857 -0.06173557 0.003718554 0.9980857 -0.06173551 0.003718495 0.627903 0.5433781 -0.5572057 0.9443168 0.2571107 -0.2053287 0.9509811 0.1732248 -0.2561798 0.00250107 0.7920237 -0.6104853 0.002516388 0.7920281 -0.6104797 0.07622206 0.5420766 -0.8368652 0.997101 0.05154663 -0.05596959 0.9999861 -0.001871228 0.004927098 0.9999248 5.89093e-4 -0.01224827 0.9780337 0.1593586 -0.1343693 0.9999374 -0.01117581 7.31035e-4 0.9628043 0.2476364 -0.1080936 0.9999929 0.001108884 0.003628909 0.6920757 0.3546261 -0.6287063 0.9509862 0.1731579 -0.2562063 0.947567 0.107724 -0.300853 0.9867678 -0.1266041 0.1012959 0.935494 -0.3201285 0.1495619 0.8628242 -0.4662968 0.1951967 0.8482545 -0.5011624 0.1711742 0.7646533 -0.637139 0.09674322 0.9699268 -0.2431698 -0.01051211 -0.9999922 0.001295506 -0.003737151 -0.999948 -0.001072347 0.01014298 -0.9999349 0.00119841 0.01135915 -0.9998289 0.001144945 0.01846295 -0.9999968 7.11082e-4 0.002479076 -0.9999349 0.00112164 0.01136583 -0.9999726 -5.29084e-5 0.007406234 0.999898 -5.57613e-4 -0.01427853 0.9999943 -0.001053631 -0.003216326 0.9999943 -0.001053273 -0.003216326 -0.9999921 0.001298367 -0.003774881 -0.9999729 -5.86575e-5 0.007378697 -0.9999426 0.00246638 0.01043629 -0.9999424 0.002473235 0.01044338 -0.9999729 -5.32875e-5 0.007370471 -0.9999167 -0.001863718 0.01278299 -0.006909787 -0.9996965 -0.02364933 -0.0532391 -0.9850461 0.1638591 -0.006896913 -0.9996966 -0.02364677 0.7342044 0.6788668 -0.009155333 0.9669564 0.2503997 0.04790979 0.9662942 0.2554545 -0.03191596 0.7347958 0.6548797 -0.1766576 0.9663022 0.2554162 -0.03198283 0.9627574 0.2477825 -0.1081771 0.9172946 0.02758169 0.397253 0.6962658 0.08041077 0.7132658 0.6538576 -0.1564496 0.7402661 0.3970487 -0.2060548 0.8943679 0.6429455 -0.09497255 0.7600008 0.578401 0.04072886 0.8147354 0.7956138 0.5998591 -0.08466285 0.401027 0.8848037 -0.237276 0.400282 0.9163915 0.001003861 0.00375545 -0.738305 -0.6744566 0.003752768 -0.7383026 -0.6744592 0.09961622 -0.9169284 -0.3864182 -0.02068483 -0.9462953 -0.3226416 -0.001166999 -0.8333194 -0.5527907 -0.006854057 -0.9996923 -0.02384167 -0.01156133 -0.9665883 0.2560732 0.0353434 -0.9945453 0.09813642 -0.01153808 -0.9665867 0.25608 -0.2028372 -0.5861013 -0.7844377 0.003705799 -0.7381927 -0.6745798 -0.09264594 -0.4682449 -0.8787283 0.9891006 0.007557034 0.1470481 0.9891006 0.007556736 0.1470475 0.9891005 0.007556676 0.1470478 0.9987412 -0.04415452 0.0237984 0.9842079 0.1619395 -0.07148665 0.9889791 0.1467177 -0.01985931 0.9999108 0.007784187 0.0108509 0.9999787 -0.006328999 0.001624703 0.9960228 0.08788901 0.01463282 0.9999677 0.003617167 -0.007176518 0.9889808 0.1467015 -0.01989412 0.9999472 0.001149058 -0.01021915 0.9987424 -0.04413723 0.02378249 0.9902136 0.1295238 0.05196875 0.9942406 -0.09390205 -0.05165416 0.9999525 -0.003144383 0.009230196 0.999889 0.01379495 0.005637407 0.9669541 0.2503994 0.04796051 0.7533493 0.6071875 0.2525634 0.9901918 0.1296566 0.052051 0.8192462 0.4359619 0.3725224 0.9769634 0.1316423 0.1679674 0.9999859 0.005312502 3.91046e-4 0.9999892 0.003951311 0.002488255 0.9999929 0.00111097 0.00363183 0.9999405 0.00733143 -0.008083105 0.9999678 0.003601014 -0.007168829 0.9999678 0.003605008 -0.007185518 0.9999407 0.007292151 -0.008088529 0.999947 0.0011307 -0.01024013 0.1400782 -0.6833989 -0.7164803 0.04111224 -0.7290193 -0.6832575 0.03423291 -0.5958564 -0.802361 0.07469964 -0.7998326 0.5955567 0.02612131 -0.726859 0.6862899 0.0289644 -0.839296 0.5429027 0.4051532 0.8318545 0.3793007 0.7473823 0.6506925 0.1342357 0.2332735 0.9516205 0.2000052 0.4846251 0.8746519 -0.01107203 0.01093292 -0.3238946 -0.94603 -0.02186816 -0.4287934 -0.9031379 -0.01569646 -0.6495004 -0.7601992 1.01118e-5 -0.7850915 -0.6193799 -9.95009e-6 -0.8514462 -0.5244421 -0.0116955 -0.8857144 -0.4640834 0.003382146 -0.9361901 -0.3514781 -0.01960867 -0.9677364 -0.2512007 0.1215997 -0.9907102 -0.06088376 -0.01510477 -0.9998377 0.009827613 0.1268222 -0.9846938 0.1195586 -0.01037377 -0.9772892 0.2116565 0.003006637 -0.9461133 0.323822 -0.007061004 -0.9064306 0.4222961 -0.01862615 -0.7783372 0.6275701 -0.01124763 -0.5816375 0.8133704 -0.01121515 -0.5815654 0.8134224 0.1778855 -0.6948423 0.6968148 0.1208202 -0.4610428 0.8791144 -0.02035605 -0.3620129 0.9319508 0.1628629 -0.2300549 0.9594532 -0.007785677 -0.0866366 0.9962096 0.1464536 0.1071298 0.9833995 -0.02081656 0.1965481 0.9802733 0.1406195 0.3012211 0.9431288 -0.01873517 0.42852 0.9033381 0.1505867 0.5858526 0.7963042 -0.02714657 0.6591129 0.7515539 0.1579466 0.7326433 0.6620323 -0.01972109 0.8232239 0.5673744 0.1016178 0.9119159 0.397597 -0.01422101 0.9426949 0.3333528 0.2331962 0.9516371 0.2000163 -0.01022565 0.9909081 0.1341522 0.2721544 0.9622535 5.67764e-4 -0.01024484 0.9909148 0.1341007 0.1537142 0.98799 -0.01573777 -0.02428627 0.9941558 -0.1051875 -0.02425926 0.9941419 -0.1053256 0.2721775 0.962247 4.86275e-4 0.1518598 0.9625627 -0.2245257 -0.02409946 0.9138006 -0.4054477 0.9842458 -0.04371881 -0.1713151 0.996025 -0.05562055 0.06957352 0.9998583 6.19884e-4 -0.01682758 0.9998617 3.1918e-4 -0.01662606 0.9999982 -0.001070201 0.001599073 0.9999893 6.01769e-4 -0.004597961 0.9984099 -0.008513987 -0.05572503 0.9842181 -0.04375141 -0.1714659 0.9748131 -0.08935648 -0.20434 0.9996879 -0.02377235 0.007683992 0.9960165 -0.05564326 0.06967812 0.9838871 -0.06983512 0.1645883 0.9226297 -0.1349972 0.3612898 0.9929878 -0.05232173 0.106009 0.9960208 -0.05564028 0.06961917 0.9971035 0.05151271 -0.05595648 0.9995398 -0.008672118 -0.02906996 0.9994111 -0.00329405 -0.03415596 -0.9998854 0.01087558 0.01053565 -0.9997156 4.6172e-4 -0.02384567 -0.9983344 0.001364409 0.05767738 -0.9986491 0.003232002 0.05186027 -0.9999729 -5.25901e-5 0.007367849 -0.9999924 0.001295268 -0.003706634 -0.9999588 -0.002392709 -0.008767247 -0.9995648 -0.004021227 -0.02922374 -0.9997214 -4.90781e-4 -0.02360326 -0.9985328 0.01581329 -0.05179238 -0.9999069 0.01207017 -0.006382226 -0.9997433 0.01039248 0.02013868 -0.9999073 0.01204848 -0.006349503 -0.9997429 0.01039385 0.0201562 -0.9999425 0.00246632 0.01044464 -0.9999986 0.001431405 8.46144e-4 -0.9999806 -0.005013406 -0.003692388 -0.9999796 -0.003850698 -0.005091965 -0.9998624 -0.002658486 -0.01637488 -0.9998294 0.001143276 0.01844102 -0.9999839 -0.004548788 0.003412723 -0.9999971 -0.002304375 -8.01856e-4 -0.9999971 -0.002103865 0.001211166 -0.9999479 -0.001055359 0.01016241 -0.9999727 -5.52977e-5 0.007400989 -0.999974 0.003011584 0.006554841 -0.9999396 0.01078432 0.002186357 -0.9997766 0.01875036 -0.009768545 -0.9999401 0.0102055 0.003965735 -0.9999902 0.001257777 0.004236757 -0.9998676 -0.01146817 0.01154786 -0.9999449 -0.00583893 0.008736133 -0.9999243 0.01220697 0.001567184 -0.9999945 0.003334462 -2.66e-5 -0.999998 0.001931011 4.48511e-4 -0.9999396 0.01077616 0.002192139 -0.999974 0.002973794 0.00657612 -0.9996471 -0.01962691 -0.01790714 0.05423116 0.3887774 0.9197344 0.01808023 0.1960805 0.9804212 0.04444259 0.4261661 0.9035527 0.04443669 0.4261835 0.9035447 0.0444377 0.4261819 0.9035454 0.03458106 0.4629523 0.8857084 7.69129e-4 -0.4228621 -0.9061937 3.34298e-4 -0.4246873 -0.9053401 3.24199e-4 -0.4247298 -0.9053202 3.16673e-4 -0.4247633 -0.9053044 3.03826e-4 -0.4248051 -0.9052848 -2.55197e-4 -0.4268648 -0.9043154 0.02916008 0.5324526 -0.8459574 0.01180475 0.4803555 -0.8769944 0.0118038 0.4803554 -0.8769946 0.01178169 0.4803028 -0.8770237 0.0117892 0.4803012 -0.8770245 -0.005642175 0.4262079 -0.9046077 -0.002389609 0.4303953 0.9026375 -0.02143132 0.4886686 0.8722063 -0.02143037 0.4886689 0.8722062 -0.02143621 0.4887005 0.8721883 2.06044e-4 0.7066968 0.7075166 0.001658082 0.8227239 0.568439 0.04503971 -0.5719437 0.8190554 0.0170139 -0.4915965 0.870657 0.01701164 -0.4915797 0.8706665 -0.01102226 -0.4063718 0.9136413 0.008695185 0.04711896 0.9988515 0.008488297 -0.448922 0.8935306 0.008520066 -0.4490541 0.893464 0.05462789 -0.5853825 0.8089149 -0.01825106 -0.5064455 -0.8620789 0.01061159 -0.4178999 -0.9084312 0.01061362 -0.4179034 -0.9084295 0.2063614 -0.2960921 -0.9326009 -0.003120124 -0.1477992 -0.9890125 0.005166292 0.05459648 -0.9984952 0.00988388 -0.9958576 0.09038776 0.01468265 -0.997055 0.07527172 0.01468807 -0.9970563 0.07525253 0.01933807 -0.9979944 0.06027746 0.04618459 0.4773094 0.8775208 -0.02275532 0.6949405 0.718707 -0.02277576 0.695063 0.7185881 -0.08997261 0.8588867 0.5042011 0.008751094 -0.9711637 -0.2382534 0.00123775 -0.9769303 -0.2135546 0.001236617 -0.9769337 -0.2135397 -0.0061149 -0.9820528 -0.1885077 0.05855083 0.9190239 0.3898294 0.01197642 0.9709342 0.2390466 0.01194888 0.9709601 0.2389429 -0.03492867 0.9960844 0.08121573 0.0451911 -0.7134543 0.699243 -0.01229351 -0.5896811 0.8075428 -0.0123288 -0.5895751 0.8076196 -0.06953406 -0.4474903 0.8915814 0.0173158 0.9975373 0.06796717 -0.01074749 0.9990519 -0.04218655 -0.01075828 0.9990504 -0.04222184 -0.03863888 0.9876754 -0.1516717 -0.9982469 -0.001055777 -0.05918002 -0.9997589 0.001670062 -0.02189666 -0.999908 0.00151956 -0.01348084 -0.9986986 -0.00621277 -0.05062162 0.3105412 0.2578163 -0.914929 0.009586334 0.4620404 -0.8868072 0.009590804 0.4620454 -0.8868044 0.003599405 0.4394035 -0.8982826 -0.02431267 -0.5399142 -0.8413689 -0.007118999 -0.4894139 -0.8720226 -0.007126688 -0.4894167 -0.872021 0.01021438 -0.4373953 -0.8992113 0.7265623 0.4107016 0.5508463 0.789907 0.2035506 0.5784583 0.9769632 0.13155 0.1680405 0.9845153 0.03437316 0.1718958 0.1143656 0.3288233 -0.9374411 0.09670251 0.2622595 -0.96014 0.09670442 0.2622512 -0.960142 0.07854133 0.194078 -0.9778369 0.001920521 -0.9723886 -0.23336 0.04487872 -0.9440997 -0.3265908 0.04490107 -0.944078 -0.3266507 0.08722877 -0.9052254 -0.4158825 0.04482406 0.9857123 0.162364 -0.01374202 0.9969514 -0.07680749 -0.01376682 0.9969514 -0.07680141 -0.01381534 0.9969381 -0.0769661 0.01849979 0.928891 -0.369891 0.002458095 0.7921175 -0.6103639 -0.05196017 0.9161549 -0.3974425 -0.009775698 0.9664322 -0.2567358 -0.00976175 0.9664313 -0.2567398 -0.009737074 0.966466 -0.2566101 -0.009734511 0.9664658 -0.2566108 0.0326687 0.9934104 -0.1098569 -0.03698801 -0.6681573 0.7431001 -0.01258021 -0.7290703 0.6843232 -0.01258343 -0.7290717 0.6843218 0.01186621 -0.7843231 0.6202392 -0.03387439 0.4141939 0.9095581 -0.02879673 0.4011892 0.9155425 -0.1650707 0.2704644 0.9484729 -0.02380257 0.388745 0.921038 -0.04355061 0.5178048 0.8543896 -0.006554663 0.4180529 0.9083992 -0.006563186 0.4180473 0.9084016 0.03047305 0.3123916 0.9494646 -0.05857402 0.982922 -0.1744523 -0.007739961 0.9997784 0.01957899 -0.007714927 0.9997787 0.01957345 -0.007695019 0.9997752 0.01975953 -0.02083253 0.943692 0.3301688 0.001731991 0.8228008 0.5683273 0.01106649 -0.4167223 -0.9089665 -0.01548284 -0.4973396 -0.8674178 -0.01546841 -0.4972972 -0.8674423 -0.01549774 -0.4973835 -0.8673924 0.003185153 -0.7123212 -0.7018464 -0.001205325 -0.8332306 -0.5529245 0.0391978 0.5479642 -0.8355829 0.02088338 0.4937204 -0.86937 0.02087503 0.4937024 -0.8693804 0.002286851 0.4371894 -0.8993667 0.008609414 0.4888078 -0.8723491 -0.01240801 0.8668007 -0.4985004 0.007085323 0.8181728 -0.5749289 -0.008304595 0.9191844 -0.39374 -0.01239728 0.8668801 -0.4983626 0.004161119 0.9851347 -0.1717331 -0.008291065 0.9191711 -0.3937714 0.004151225 0.9851303 -0.1717591 -3.91917e-4 0.9829377 -0.1839388 0.7926128 -0.3531004 0.4970765 0.9568026 -0.137264 0.2562957 0.6629206 -0.3535438 0.6599569 0.2860962 -0.4599286 0.8406037 0.7460344 -0.3109554 0.5888459 0.3970813 -0.2062154 0.8943163 0.692046 0.3546018 -0.6287527 0.7680922 0.1448469 -0.6237418 0.5074014 0.1849035 -0.841638 0.2164676 0.2264758 -0.9496581 0.5072748 0.1848852 -0.8417184 0.06724745 -0.02971231 -0.9972939 0.01575237 0.9924313 0.1217871 -0.0115329 0.9113631 0.4114418 0.003175854 0.7462036 0.6657103 0.003113567 0.7460721 0.665858 0.003115832 0.7460719 0.6658582 -0.06027901 0.5162903 0.8542897 0.03483271 -0.9746928 -0.220818 -0.01324003 -0.9248452 -0.3801134 -0.01324194 -0.9248452 -0.380113 0.01334971 -0.7680626 -0.6402356 -0.0132873 -0.9247833 -0.3802625 6.08996e-4 -0.5872434 -0.8094103 0.003524541 0.6052085 -0.7960591 -0.01060628 0.7793687 -0.626476 1.64449e-4 0.901165 -0.4334762 0.02483522 0.9872879 -0.1569898 1.25863e-4 0.9012526 -0.4332941 0.01572358 0.9924558 0.1215909 -0.00152105 -0.9404069 -0.340048 -0.01594626 -0.8198004 -0.5724275 0.008690357 -0.6539438 -0.7564932 0.02548563 -0.360986 -0.932223 0.008628427 -0.6537984 -0.7566196 0.004296123 -0.04904955 -0.9987872 -0.02898287 -0.630761 0.7754358 0.02031075 -0.452569 0.891498 0.02025485 -0.452679 0.8914434 0.06843668 -0.2524311 0.9651917 0.9747921 -0.08935558 -0.2044411 0.9817253 -0.04968494 -0.1837035 0.9476201 0.107617 -0.3007236 0.07972151 -0.4461346 0.8914082 0.08648931 -0.4234277 0.9017919 0.08647745 -0.4234588 0.9017784 0.09332191 -0.4008496 0.9113785 0.5956982 0.7643488 -0.2468088 0.9387544 0.3146799 -0.1404165 0.5960582 0.7070759 -0.3804712 0.7357324 0.5824313 -0.3456469 0.9627529 0.2477973 -0.1081823 0.9443253 0.2571344 -0.2052602 0.4063856 0.7834038 -0.4702438 0.7780807 0.4945844 -0.3872683 0.3320942 0.6594462 -0.6744214 -0.1120918 0.4580846 -0.8818129 -0.02685636 0.1177602 -0.9926789 -0.02686244 0.1177705 -0.9926775 -0.04494714 -0.2548647 -0.9659315 -0.02679175 0.117603 -0.9926993 6.09282e-4 -0.587121 -0.809499 0.04025918 -0.4144183 0.9091957 -0.0095492 -0.709693 0.7044464 -0.009501934 -0.7096863 0.7044538 0.006394803 -0.853956 0.5203061 -0.009578526 -0.7098116 0.7043265 -0.01158916 -0.9665437 0.2562406 0.9999108 0.007792472 0.01085668 0.9950347 -0.01444405 -0.09847521 0.9971426 -0.01886117 -0.07314991 0.9971425 -0.0188905 -0.07314455 0.995017 -0.0145092 -0.09864479 0.9902114 0.1295487 0.05194747 0.9998265 -0.01601511 -0.009522497 0.9917613 0.07041645 0.1070105 0.9999871 -0.004630804 -0.002113699 0.9999579 0.002998054 -0.008681535 0.9997867 -0.001664161 -0.02058511 0.9998613 3.24036e-4 -0.01665627 0.9999249 5.90932e-4 -0.01224863 0.9994117 -0.003291368 -0.03414005 -0.03739017 0.7438844 -0.6672616 0.02531623 0.5839503 -0.8113946 0.02526962 0.5840799 -0.8113027 0.08666443 0.3950821 -0.9145488 -0.08463811 -0.8198084 0.5663486 0.008535742 -0.6186397 0.7856284 0.0085029 -0.6187396 0.7855502 0.1009066 -0.3575419 0.9284298 -0.08109241 -0.3594686 -0.929627 -0.03103321 -0.5130298 -0.8578096 -0.03103148 -0.513023 -0.8578138 -0.01232057 -0.7486444 -0.6628573 -0.03096789 -0.5131553 -0.8577371 0.02593922 -0.8890872 -0.4570024 -0.03027933 -0.9904679 0.1343755 0.003866851 -0.9050146 0.4253631 -0.009431123 -0.7574639 0.652809 -0.1674895 -0.5519445 0.8168871 -0.009329319 -0.7573953 0.65289 0.06934905 -0.4838061 0.8724232 -0.9999778 -0.006633102 7.04194e-4 -0.9998013 -0.01955717 -0.003843843 -0.999915 -0.01300948 0.001016438 -0.9999861 -0.003498792 0.003969609 -0.9994004 0.00944221 0.03331291 -0.9999658 -0.006521821 -0.005098521 -0.9999578 0.008828997 0.002542912 -0.9999972 -0.001442253 0.001906931 -0.9999904 -0.001882731 -0.003958404 -0.9999842 0.004463016 0.003436565 -0.9995338 0.01663362 0.0256018 -0.9994359 0.01731526 0.02877837 -0.9999893 -0.004607617 5.01687e-4 -0.999989 -0.004673361 5.66317e-4 -0.999986 -0.003522753 0.003970444 -0.9999795 -0.006415247 1.25238e-4 -0.9999893 -0.004608869 5.4779e-4 -0.9999795 -0.006399631 8.29559e-5 -0.9999886 -0.002802312 -0.003893613 -0.9999883 -0.002781093 -0.003948867 -0.9999796 -0.006394386 2.09054e-5 -0.9999781 -0.003394544 -0.005697071 -0.9999436 0.001505434 -0.01052767 -0.9999487 -0.009919703 -0.00205928 -0.984272 -0.1731712 -0.03493565 -0.9971965 -0.07407319 -0.01059424 -0.993319 -0.1119812 -0.02788847 -0.9999794 -0.006430566 4.49243e-5 -0.9999786 -0.003322601 -0.005647778 -0.999993 0.001332163 -0.003518044 -0.9999487 -0.00991714 -0.002063393 -0.9999969 7.09109e-4 0.002435624 -0.999997 -0.002286553 -9.13838e-4 0.007360756 0.6356845 0.771914 -0.03904914 0.5072736 0.8608999 -0.03901684 0.5073642 0.8608481 -0.08434736 0.3650681 0.927152 -0.9999904 0.00125885 0.004229784 -0.999777 0.01872783 -0.009764254 -0.9999881 0.002506434 -0.00420469 -1 1.80554e-4 4.92342e-4 -0.9999989 0.001158356 9.7294e-4 -0.9999076 0.01203352 -0.006346642 -0.9999165 -0.001868724 0.01279264 -0.04539418 0.4429983 0.8953726 6.19544e-4 0.7198032 0.694178 0.01506638 0.8005081 0.5991327 0.04410779 0.9144856 0.4022073 0.01506769 0.8006134 0.5989919 0.04411715 0.9144703 0.4022411 0.04168754 0.9180452 0.3942784 -0.999993 0.001329243 -0.003514587 -0.9971969 -0.07407051 -0.01058566 -0.9999881 -0.002505123 0.004203438 -1 -1.80373e-4 -4.91508e-4 -1 7.55857e-7 0 -0.9999522 -0.004405498 -0.008730709 -0.99976 0.001658856 -0.02184313 0.9999505 -0.004736244 0.008756935 0.9999981 -5.80238e-4 0.001891374 0.9882827 -0.005018889 -0.1525521 0.9730955 -0.001176297 -0.2303991 0.991858 0.008692681 -0.1270523 0.9731346 -0.001154601 -0.2302343 0.9984157 -0.05302613 0.01882731 0.9992305 0.01741737 -0.0351473 0.9991825 -0.03478121 0.02060484 0.999231 0.01741671 -0.03513008 0.9949049 -0.06963747 0.07290321 0.999334 -0.004961431 0.03615367 0.9995794 -0.004394531 0.02866697 0.9999504 -0.004737854 0.008769273 0.9999982 -5.74476e-4 0.001880705 -0.9982093 0.002673268 0.05975842 0.9998449 0.00440818 -0.01705658 0.999998 -5.75562e-4 0.001883924 0.999958 0.003091871 -0.008623957 0.9997673 -0.001755237 -0.02150028 0.9882811 -0.004989445 -0.1525635 0.9998666 0.00575751 -0.01529037 0.9919736 -0.09457278 0.0839309 0.9943709 -6.36452e-5 -0.1059555 0.9987023 -0.04404538 0.02557206 0.9999981 -5.63183e-4 0.001886248 0.9998458 0.004383862 -0.01700884 0.9934334 -0.03865563 -0.1076844 0.9998977 -0.01398509 -0.003029465 0.9999935 0.00244832 -0.002672791 0.9999815 0.002498328 -0.00556612 0.9808108 0.006497681 -0.1948539 0.9943547 -7.14064e-5 -0.1061077 0.9902034 -0.02664786 -0.1370663 0.9988148 -0.03106105 -0.03747397 0.9943668 -8.42065e-5 -0.1059944 0.9996645 -0.002749443 -0.02575886 0.9999484 0.008952438 -0.004817545 0.9997673 -0.00176835 -0.02150148 0.9917643 0.07041639 0.1069826 0.9655658 -0.1046661 -0.2381761 0.9988115 -0.03107607 -0.03754967 0.9655253 -0.1047244 -0.2383146 0.9710336 -0.06106597 -0.2310081 0.9934229 -0.03869664 -0.1077661 0.9793264 0.1932966 -0.05963402 0.9937773 -0.107788 -0.02807754 0.9999642 0.001239061 0.0083642 0.9998189 -0.01451337 0.0123133 0.999827 -0.01800197 0.004699349 0.9829616 0.1635198 -0.08395075 0.9829325 0.1636753 -0.08398902 0.9973258 0.06637626 -0.03058356 0.8891901 0.4269726 -0.1644238 0.9792916 0.1934487 -0.05971437 0.8892446 0.4268847 -0.1643581 0.9980915 0.06052678 -0.01225256 0.9999132 0.01184934 0.005773425 0.9999815 -0.001174449 -0.005963206 0.9999984 0.001577973 8.41657e-4 0.9999125 0.01190066 0.005794584 0.9937818 -0.1077505 -0.0280646 0.9602422 -0.2496441 -0.1249513 0.9997389 0.002465546 0.02272158 0.9999274 0.004031717 0.01136034 0.9999873 0.004921793 0.001149117 0.9999474 0.008040964 -0.006373584</float_array>
          <technique_common>
            <accessor source="#polygons_003-mesh-normals-array" count="758" stride="3">
              <param name="X" type="float"/>
              <param name="Y" type="float"/>
              <param name="Z" type="float"/>
            </accessor>
          </technique_common>
        </source>
        <vertices id="polygons_003-mesh-vertices">
          <input semantic="POSITION" source="#polygons_003-mesh-positions"/>
        </vertices>
        <triangles material="Surface_1_006-material" count="439">
          <input semantic="VERTEX" source="#polygons_003-mesh-vertices" offset="0"/>
          <input semantic="NORMAL" source="#polygons_003-mesh-normals" offset="1"/>
          <p>0 0 1 1 2 2 2 2 1 1 3 3 2 2 3 3 4 4 4 4 3 3 5 5 4 4 5 5 6 6 6 6 5 5 7 7 6 6 7 7 8 8 8 8 7 7 9 9 8 8 9 9 10 10 10 10 9 9 11 11 10 10 11 11 12 12 12 12 11 11 13 13 12 12 13 13 14 14 14 14 13 13 15 15 14 14 15 15 16 16 16 16 15 15 17 17 16 16 17 17 18 18 18 18 17 17 19 19 18 18 19 19 20 20 20 20 19 19 21 21 20 20 21 21 22 22 22 22 21 21 23 23 22 22 23 23 24 24 24 24 23 23 25 25 24 24 25 25 26 26 26 26 25 25 27 27 26 26 27 27 28 28 28 28 27 27 29 29 28 28 29 29 30 30 30 30 29 29 31 31 30 30 31 31 32 32 32 32 31 31 33 33 32 32 33 33 34 34 34 34 33 33 35 35 34 34 35 35 36 36 36 36 35 35 37 37 36 36 37 37 38 38 38 38 37 37 39 39 38 38 39 39 40 40 40 40 39 39 41 41 40 40 41 41 42 42 42 42 41 41 43 43 42 42 43 43 44 44 44 44 43 43 45 45 44 44 45 45 0 46 0 0 45 47 1 1 46 48 47 49 48 50 49 51 50 52 51 53 52 54 53 55 54 56 55 57 50 52 56 58 57 59 58 60 56 58 56 58 58 60 59 61 56 58 59 61 55 57 57 59 60 62 58 60 50 52 61 63 62 64 63 65 31 66 54 67 52 68 56 69 64 70 65 71 66 72 67 73 68 74 69 75 67 73 67 73 69 75 70 76 67 73 70 76 65 71 25 77 68 74 71 78 72 79 29 80 71 78 71 78 29 80 27 81 71 78 27 81 25 77 54 82 53 83 63 84 63 84 53 83 73 85 63 84 73 85 72 79 72 79 73 85 74 86 72 79 74 86 29 80 29 80 74 86 75 87 29 80 75 87 31 88 31 88 75 87 54 89 23 90 76 91 25 77 25 77 76 91 77 92 25 77 77 92 68 74 68 74 77 92 78 93 68 74 78 93 69 75 79 94 80 95 81 96 81 96 80 95 76 97 81 96 76 97 82 98 83 99 84 100 85 101 85 101 84 100 70 76 85 101 70 76 79 94 79 94 70 76 69 75 79 94 69 75 80 95 84 100 83 99 86 102 50 52 49 51 87 103 88 104 24 105 87 103 87 103 24 105 26 106 87 103 26 106 50 52 50 52 26 106 28 107 50 52 28 107 56 58 56 58 28 107 30 108 77 109 87 110 49 111 75 112 89 113 90 114 91 115 92 116 47 117 93 118 94 118 95 118 96 119 56 120 30 121 97 122 98 123 99 123 97 124 100 125 15 126 101 127 45 128 102 129 103 130 99 131 16 132 104 133 43 134 105 135 106 136 107 137 108 138 100 139 109 140 110 141 100 142 110 143 111 144 111 144 110 143 112 145 111 144 112 145 84 146 84 146 112 145 113 147 84 146 113 147 70 148 70 148 113 147 114 149 70 148 114 149 65 150 65 150 114 149 115 151 65 150 115 151 66 152 116 153 113 154 112 155 117 156 118 157 119 158 116 159 22 159 120 159 86 160 21 161 84 162 119 163 118 164 37 165 76 166 23 167 82 168 57 169 121 170 60 171 122 172 24 173 88 174 123 175 10 176 124 177 125 178 126 179 127 180 128 181 2 182 129 183 129 184 130 185 131 186 118 187 117 188 132 189 112 190 133 191 116 192 134 193 102 194 135 195 116 196 20 197 22 198 20 197 116 196 133 199 20 197 133 199 18 200 18 200 133 199 103 201 18 200 103 201 16 202 113 203 116 204 136 205 92 206 137 207 138 208 92 206 138 208 139 209 139 209 138 208 121 210 139 209 121 210 57 211 101 212 102 213 140 214 141 215 1 216 140 217 140 217 1 216 45 218 140 219 45 220 101 221 101 222 45 223 104 224 104 225 45 226 43 227 142 228 143 229 144 230 145 231 146 232 147 233 109 234 147 235 103 236 106 237 108 238 46 239 46 240 48 241 106 242 147 243 109 244 145 245 148 246 119 247 149 248 144 249 150 250 142 251 151 252 83 253 85 254 119 255 148 256 152 257 153 258 1 259 141 260 154 261 103 262 147 263 10 264 12 265 146 266 146 266 12 265 14 267 146 266 14 267 147 268 147 268 14 267 155 269 147 268 155 269 154 270 156 271 157 272 146 266 146 266 157 272 158 273 146 266 158 273 10 264 10 264 158 273 124 274 146 275 159 276 156 277 156 277 159 276 130 278 156 277 130 278 129 279 99 280 98 281 16 282 16 282 98 281 160 283 16 282 160 283 14 284 14 285 160 286 155 287 50 288 55 289 61 290 92 291 91 292 137 293 159 294 146 295 161 296 161 296 146 295 145 297 66 152 62 298 67 299 67 299 62 298 61 290 67 299 61 290 68 300 68 300 61 290 55 289 68 300 55 289 71 301 71 301 55 289 59 302 71 301 59 302 72 303 72 303 59 302 58 304 72 303 58 304 63 305 63 305 58 304 60 306 63 305 60 306 162 307 162 307 60 306 121 308 162 307 121 308 163 309 163 309 121 308 138 310 163 309 138 310 118 311 118 311 138 310 137 293 118 311 137 293 164 312 164 312 137 293 91 292 164 312 91 292 105 313 105 314 91 315 165 316 105 314 165 316 166 317 166 317 165 316 46 318 166 317 46 318 167 319 167 319 46 318 108 320 167 319 108 320 168 321 168 321 108 320 107 322 168 321 107 322 169 323 169 323 107 322 131 324 169 323 131 324 153 325 153 325 131 324 130 326 153 325 130 326 170 327 170 327 130 326 159 328 170 327 159 328 171 329 171 329 159 328 161 330 171 329 161 330 172 331 172 331 161 330 145 332 172 333 145 334 173 335 173 336 145 337 109 338 173 336 109 338 100 339 62 298 66 152 115 151 174 340 175 341 176 342 122 343 88 344 176 342 176 342 88 344 177 345 176 342 177 345 174 340 175 346 174 347 62 64 62 64 174 347 51 53 62 64 51 53 50 52 62 348 136 349 175 350 175 351 136 352 116 353 175 354 116 355 151 356 151 356 116 355 120 357 95 358 178 359 179 360 95 358 179 360 180 361 180 361 179 360 45 362 180 361 45 362 101 363 169 364 181 365 167 366 167 366 181 365 178 359 167 366 178 359 166 367 166 367 178 359 95 358 166 367 95 358 105 368 105 368 95 358 94 369 105 370 94 371 104 372 167 366 168 373 169 364 126 374 135 375 169 364 169 364 135 375 150 376 169 364 150 376 181 365 141 377 127 378 153 379 153 379 127 378 126 374 153 379 126 374 169 364 150 376 135 375 142 380 142 380 135 375 102 381 142 380 102 381 45 382 132 383 163 384 118 385 119 386 37 387 149 388 149 388 37 387 35 389 63 390 162 391 33 392 33 392 162 391 163 393 33 392 163 393 35 389 35 389 163 393 132 394 35 389 132 394 149 388 63 390 33 392 31 395 56 396 96 397 73 398 73 399 96 400 74 401 182 402 183 403 155 404 155 405 183 406 154 407 184 408 182 409 160 410 160 411 182 412 155 413 45 414 179 415 0 416 0 417 179 418 185 419 142 420 45 421 143 422 143 422 45 421 0 423 96 424 89 425 74 426 74 426 89 425 75 427 88 428 87 429 76 430 76 431 87 432 77 433 76 434 80 435 88 436 88 436 80 435 177 437 104 438 94 439 186 440 186 440 94 439 93 441 183 442 187 443 154 444 154 444 187 443 103 445 97 446 184 447 98 448 98 448 184 447 160 449 101 450 104 451 188 452 188 452 104 451 186 453 81 454 82 455 176 456 176 456 82 455 122 457 23 458 21 459 82 460 82 460 21 459 86 461 82 462 86 463 122 464 122 464 86 463 120 465 151 466 120 467 83 468 83 468 120 467 86 469 131 470 107 471 129 472 129 472 107 471 106 473 156 474 123 475 189 476 189 476 123 475 190 477 157 478 156 479 191 480 191 480 156 479 189 481 140 482 102 483 192 484 192 485 102 486 134 487 123 488 124 489 190 490 190 491 124 492 193 493 158 494 157 495 194 496 194 496 157 495 191 497 141 498 140 499 128 500 128 500 140 499 192 501 124 502 158 503 193 504 193 504 158 503 194 505 195 506 185 507 178 508 178 509 185 510 179 511 181 512 150 513 196 514 196 515 150 516 144 517 178 518 181 519 195 520 195 520 181 519 196 521 52 522 64 523 53 524 53 525 64 526 56 527 53 528 56 529 73 530 91 531 47 532 165 533 165 534 47 535 46 536 113 537 136 538 114 539 114 540 136 541 115 542 78 543 51 544 69 545 69 546 51 547 174 548 101 549 188 550 180 551 180 552 188 553 197 554 77 555 49 556 78 557 78 558 49 559 51 560 75 561 90 562 54 563 54 564 90 565 52 566 177 567 80 568 174 569 174 569 80 568 69 570 62 571 115 572 136 573 103 574 187 575 99 576 99 576 187 575 97 577 109 578 103 579 110 580 110 581 103 582 133 583 110 584 133 585 112 586 93 587 95 588 197 589 197 590 95 591 180 592 79 593 175 594 85 595 85 596 175 597 151 598 10 599 123 600 8 601 8 602 123 603 156 604 8 602 156 604 6 605 6 605 156 604 129 606 6 605 129 606 4 607 4 607 129 606 2 608 24 609 122 610 22 611 22 611 122 610 120 612 139 613 117 614 152 615 152 615 117 614 119 616 148 617 149 618 198 619 198 619 149 618 132 620 134 621 135 622 125 623 125 624 135 625 126 626 125 627 127 628 128 629 128 630 127 631 141 632 189 633 171 634 191 635 191 635 171 634 172 636 191 635 172 636 194 637 189 633 170 638 171 634 189 633 7 639 170 638 170 638 7 639 5 640 170 638 5 640 3 641 189 633 190 642 7 639 7 639 190 642 193 643 7 639 193 643 9 644 193 643 194 637 9 644 9 644 194 637 172 636 9 644 172 636 11 645 11 646 172 647 173 648 11 649 173 650 13 651 13 652 173 653 182 654 13 652 182 654 184 655 97 656 187 657 100 658 100 658 187 657 183 659 100 658 183 659 173 660 173 660 183 659 182 661 13 652 184 655 15 662 15 662 184 655 97 663 1 664 153 665 3 641 3 641 153 665 170 638 81 666 176 667 79 668 79 668 176 667 175 669 37 670 118 671 39 672 39 672 118 671 164 673 39 672 164 673 41 674 41 674 164 673 105 675 41 674 105 675 43 676 198 677 132 678 199 679 199 679 132 678 117 680 199 681 117 682 139 683 15 684 100 685 17 686 17 686 100 685 111 687 17 686 111 687 19 688 19 688 111 687 84 689 19 688 84 689 21 690 188 691 0 692 185 693 188 691 185 693 197 694 197 694 185 693 47 695 197 696 47 697 93 698 93 698 47 697 92 699 93 700 92 701 186 702 186 702 92 701 44 703 186 702 44 703 188 704 188 704 44 703 0 705 188 706 0 706 192 706 192 707 0 708 2 709 192 707 2 709 128 710 185 711 195 712 47 713 47 713 195 712 196 714 47 713 196 714 48 715 0 716 192 717 134 718 38 719 40 720 92 701 92 701 40 720 42 721 92 701 42 721 44 703 48 722 196 723 106 724 106 725 196 726 144 727 106 725 144 727 134 718 134 718 144 727 143 728 134 718 143 728 0 716 128 729 129 730 125 731 125 731 129 730 106 732 125 733 106 734 134 735 199 736 57 737 198 738 198 738 57 737 36 739 198 738 36 739 148 740 148 740 36 739 38 719 148 740 38 719 152 741 152 741 38 719 92 701 152 742 92 743 139 744 199 745 139 746 57 747 52 748 32 749 57 737 57 737 32 749 34 750 57 737 34 750 36 739 52 751 57 752 56 753 96 754 30 755 89 756 89 756 30 755 32 749 89 756 32 749 90 757 90 757 32 749 52 748</p>
        </triangles>
      </mesh>
    </geometry>
  </library_geometries>
  <library_visual_scenes>
    <visual_scene id="Scene" name="Scene">
      <node id="f_1-06vxh12-a00_lk6" name="f_1-06vxh12-a00_lk6" type="NODE">
        <matrix sid="transform">1 0 0 -0.795 0 1 0 0 0 0 1 -1.261 0 0 0 1</matrix>
        <instance_geometry url="#polygons_003-mesh" name="f_1-06vxh12-a00_lk6">
          <bind_material>
            <technique_common>
              <instance_material symbol="Surface_1_006-material" target="#Surface_1_006-material"/>
            </technique_common>
          </bind_material>
        </instance_geometry>
      </node>
    </visual_scene>
  </library_visual_scenes>
  <scene>
    <instance_visual_scene url="#Scene"/>
  </scene>
</COLLADA>